<?xml version="1.0" encoding="UTF-8"?>
<svg width="20px" height="20px" viewBox="0 0 20 20" version="1.1" xmlns="http://www.w3.org/2000/svg" xmlns:xlink="http://www.w3.org/1999/xlink">
    <title>E3E79301-AE23-4A31-BD7D-F6EF4696EC89</title>
    <g id="Develop" stroke="none" stroke-width="1" fill="none" fill-rule="evenodd">
        <g id="develop-UI-kit" transform="translate(-636.000000, -2561.000000)">
            <g id="Twitter" transform="translate(636.000000, 2561.000000)">
                <g id="Dark_Blue" fill="#1DA1F2" fill-rule="nonzero">
                    <path d="M10,0 L10,0 C15.522,0 20,4.478 20,10 L20,10 C20,15.522 15.522,20 10,20 L10,20 C4.478,20 0,15.522 0,10 L0,10 C0,4.478 4.478,0 10,0 Z" id="Path"></path>
                </g>
                <g id="Logo_FIXED">
                    <path d="M7.68,15.08 C12.396,15.08 14.978,11.172 14.978,7.782 C14.978,7.672 14.978,7.56 14.97,7.45 C15.472,7.086 15.906,6.638 16.25,6.122 C15.782,6.33 15.286,6.466 14.778,6.526 C15.314,6.206 15.714,5.702 15.906,5.108 C15.402,5.406 14.852,5.618 14.278,5.73 C13.306,4.698 11.682,4.648 10.65,5.618 C9.984,6.244 9.702,7.178 9.908,8.068 C7.846,7.964 5.924,6.99 4.622,5.388 C3.942,6.56 4.288,8.058 5.416,8.812 C5.008,8.8 4.608,8.69 4.252,8.492 C4.252,8.502 4.252,8.514 4.252,8.524 C4.252,9.744 5.112,10.796 6.31,11.038 C5.932,11.14 5.536,11.156 5.152,11.082 C5.488,12.126 6.45,12.842 7.548,12.864 C6.64,13.578 5.518,13.966 4.364,13.964 C4.16,13.964 3.956,13.952 3.754,13.926 C4.922,14.68 6.288,15.08 7.68,15.078" id="Path" fill="#FFFFFF" fill-rule="nonzero"></path>
                    <path d="M10,0 L10,0 C15.522,0 20,4.478 20,10 L20,10 C20,15.522 15.522,20 10,20 L10,20 C4.478,20 0,15.522 0,10 L0,10 C0,4.478 4.478,0 10,0 Z" id="Path"></path>
                </g>
            </g>
        </g>
    </g>
</svg>